<svg width="24" height="24" viewBox="0 0 24 24" fill="none" xmlns="http://www.w3.org/2000/svg">
<path d="M4 3C4 2.44772 4.44772 2 5 2H19C19.5523 2 20 2.44772 20 3V14.2C20 15.7464 18.7464 17 17.2 17H6.8C5.2536 17 4 15.7464 4 14.2V3Z" fill="#1053D5"/>
<path d="M8 22C7.58579 22 7.25 21.6642 7.25 21.25C7.25 20.8358 7.58579 20.5 8 20.5H11.25V17.25C11.25 16.8358 11.5858 16.5 12 16.5C12.4142 16.5 12.75 16.8358 12.75 17.25V20.5L16 20.5C16.4142 20.5 16.75 20.8358 16.75 21.25C16.75 21.6642 16.4142 22 16 22H8Z" fill="#1053D5"/>
<path d="M7.2 11.1L10.3 8.7C10.55 8.5 10.92 8.56 11.1 8.84L12.3 10.68C12.49 10.97 12.88 11.02 13.14 10.8L16.8 7.8" stroke="white" stroke-width="1.8" stroke-linecap="round" stroke-linejoin="round"/>
</svg>
