<svg width="24" height="24" viewBox="0 0 24 24" fill="none" xmlns="http://www.w3.org/2000/svg">
<path d="M10.757 3.785C11.1791 2.73833 12.8209 2.73833 13.243 3.785L15.0098 8.16672C15.1877 8.60795 15.6031 8.90957 16.0788 8.94862L20.8018 9.33641C21.9303 9.42906 22.4377 10.8306 21.5778 11.5669L17.9789 14.6492C17.6164 14.9597 17.4581 15.4456 17.569 15.9099L18.6686 20.5136C18.9313 21.6133 17.6032 22.4518 16.6367 21.8396L12.5918 19.2772C12.184 19.0188 11.816 19.0188 11.4082 19.2772L7.36335 21.8396C6.39679 22.4518 5.06868 21.6133 5.33139 20.5136L6.43104 15.9099C6.54195 15.4456 6.38362 14.9597 6.02113 14.6492L2.42217 11.5669C1.56232 10.8306 2.06974 9.42906 3.1982 9.33641L7.92118 8.94862C8.39695 8.90957 8.81234 8.60795 8.99025 8.16672L10.757 3.785Z" fill="#F59E0B"/>
</svg>
