<svg xmlns="http://www.w3.org/2000/svg" viewBox="0 0 120 120" role="img" aria-label="QRIS code">
  <rect width="120" height="120" fill="#ffffff"/>
  <rect x="6" y="6" width="108" height="108" fill="#ffffff" stroke="#111827" stroke-width="2"/>

  <rect x="14" y="14" width="28" height="28" fill="#111827"/>
  <rect x="19" y="19" width="18" height="18" fill="#ffffff"/>
  <rect x="23" y="23" width="10" height="10" fill="#111827"/>

  <rect x="78" y="14" width="28" height="28" fill="#111827"/>
  <rect x="83" y="19" width="18" height="18" fill="#ffffff"/>
  <rect x="87" y="23" width="10" height="10" fill="#111827"/>

  <rect x="14" y="78" width="28" height="28" fill="#111827"/>
  <rect x="19" y="83" width="18" height="18" fill="#ffffff"/>
  <rect x="23" y="87" width="10" height="10" fill="#111827"/>

  <rect x="52" y="52" width="8" height="8" fill="#111827"/>
  <rect x="62" y="52" width="8" height="8" fill="#111827"/>
  <rect x="72" y="52" width="8" height="8" fill="#111827"/>
  <rect x="52" y="62" width="8" height="8" fill="#111827"/>
  <rect x="72" y="62" width="8" height="8" fill="#111827"/>
  <rect x="52" y="72" width="8" height="8" fill="#111827"/>
  <rect x="62" y="72" width="8" height="8" fill="#111827"/>
  <rect x="72" y="72" width="8" height="8" fill="#111827"/>

  <rect x="48" y="88" width="6" height="6" fill="#111827"/>
  <rect x="58" y="88" width="6" height="6" fill="#111827"/>
  <rect x="68" y="88" width="6" height="6" fill="#111827"/>
  <rect x="78" y="88" width="6" height="6" fill="#111827"/>
  <rect x="88" y="88" width="6" height="6" fill="#111827"/>

  <rect x="88" y="48" width="6" height="6" fill="#111827"/>
  <rect x="98" y="48" width="6" height="6" fill="#111827"/>
  <rect x="88" y="58" width="6" height="6" fill="#111827"/>
  <rect x="98" y="58" width="6" height="6" fill="#111827"/>
</svg>
